<svg width="619" height="469" viewBox="0 0 619 469" fill="none" xmlns="http://www.w3.org/2000/svg">
<g clip-path="url(#clip0_107_284)">
<path d="M123.332 469C191.446 469 246.663 464.433 246.663 458.799C246.663 453.166 191.446 448.599 123.332 448.599C55.2175 448.599 0 453.166 0 458.799C0 464.433 55.2175 469 123.332 469Z" fill="#E6E6E6"/>
<path d="M94.2725 104.063C115.736 94.1212 142.469 100.42 168.577 104.792C168.82 99.4977 171.764 93.0545 168.68 89.361C164.932 84.8737 165.277 80.1589 167.532 75.4169C173.299 63.291 165.037 50.3883 156.694 39.6598C154.814 37.2471 152.438 35.3514 149.758 34.1267C147.079 32.902 144.172 32.3829 141.274 32.6114L125.82 33.8134C122.06 34.1059 118.471 35.6421 115.534 38.2164C112.597 40.7908 110.452 44.2804 109.387 48.2185C105.697 53.6836 103.722 59.1336 104.965 64.5553C99.4381 68.6685 98.5095 73.6336 100.993 79.2309C103.099 82.7551 103.077 86.1857 100.897 89.5213C98.0351 93.7739 95.8429 98.5157 94.4106 103.552L94.2725 104.063Z" fill="#2F2E41"/>
<path d="M604.332 405.443H166.881C162.991 405.443 159.26 403.76 156.509 400.764C153.758 397.769 152.213 393.706 152.213 389.47C310.789 369.4 466.384 369.4 619 389.47C619 393.706 617.454 397.769 614.704 400.764C611.953 403.76 608.222 405.443 604.332 405.443Z" fill="#2F2E41"/>
<path d="M619 390.409L152.213 389.47L206.312 290.34L206.571 289.871V71.4011C206.57 68.7494 207.05 66.1236 207.982 63.6736C208.913 61.2237 210.279 58.9976 212.001 57.1226C213.723 55.2475 215.767 53.7601 218.017 52.7455C220.266 51.7308 222.678 51.2086 225.113 51.2089H543.511C545.946 51.2086 548.358 51.7308 550.607 52.7455C552.857 53.7601 554.901 55.2475 556.623 57.1226C558.345 58.9976 559.711 61.2237 560.642 63.6736C561.574 66.1236 562.054 68.7494 562.053 71.4011V291.374L619 390.409Z" fill="#3F3D56"/>
<path d="M224.69 65.3031C223.089 65.3051 221.554 65.9987 220.421 67.2317C219.289 68.4648 218.652 70.1366 218.65 71.8804V271.078C218.652 272.822 219.289 274.494 220.421 275.727C221.554 276.96 223.089 277.654 224.69 277.656H546.523C548.124 277.654 549.659 276.96 550.792 275.727C551.924 274.494 552.561 272.822 552.563 271.078V71.8804C552.561 70.1366 551.924 68.4648 550.792 67.2318C549.659 65.9988 548.124 65.3051 546.523 65.3031H224.69Z" fill="white"/>
<path d="M226.039 303.965C225.544 303.966 225.059 304.121 224.643 304.411C224.226 304.702 223.894 305.116 223.687 305.605L207.017 345.069C206.836 345.499 206.756 345.971 206.786 346.442C206.817 346.914 206.955 347.37 207.189 347.768C207.423 348.166 207.746 348.493 208.126 348.72C208.507 348.947 208.934 349.066 209.369 349.066H559.921C560.362 349.066 560.796 348.943 561.181 348.709C561.567 348.475 561.891 348.138 562.123 347.729C562.355 347.32 562.487 346.854 562.506 346.374C562.526 345.894 562.433 345.416 562.235 344.987L544.116 305.523C543.902 305.054 543.572 304.659 543.163 304.384C542.754 304.108 542.283 303.963 541.802 303.965H226.039Z" fill="#2F2E41"/>
<path d="M384.312 62.0145C386.457 62.0145 388.195 60.1214 388.195 57.7862C388.195 55.451 386.457 53.558 384.312 53.558C382.168 53.558 380.43 55.451 380.43 57.7862C380.43 60.1214 382.168 62.0145 384.312 62.0145Z" fill="white"/>
<path d="M349.856 356.583C349.287 356.584 348.734 356.789 348.282 357.165C347.83 357.542 347.505 358.071 347.357 358.669L343.175 375.582C343.072 376 343.058 376.438 343.135 376.862C343.212 377.287 343.378 377.686 343.62 378.03C343.861 378.373 344.172 378.651 344.529 378.843C344.885 379.034 345.277 379.134 345.674 379.134H425.195C425.608 379.134 426.014 379.026 426.381 378.82C426.748 378.614 427.064 378.316 427.303 377.95C427.543 377.584 427.698 377.161 427.757 376.716C427.815 376.271 427.775 375.817 427.64 375.393L422.265 358.48C422.088 357.926 421.758 357.446 421.32 357.106C420.881 356.766 420.357 356.583 419.818 356.583H349.856Z" fill="#2F2E41"/>
<path d="M562.053 286.582V290.34H206.312L206.579 289.871V286.582H562.053Z" fill="#2F2E41"/>
<path d="M552.131 131.546C585.488 131.546 612.528 102.098 612.528 65.7729C612.528 29.4475 585.488 0 552.131 0C518.774 0 491.733 29.4475 491.733 65.7729C491.733 102.098 518.774 131.546 552.131 131.546Z" fill="#C14607"/>
<path d="M577.153 94.4311H527.109C526.194 94.4301 525.317 94.0338 524.67 93.3292C524.023 92.6245 523.659 91.6691 523.658 90.6726V57.7862C523.659 56.7897 524.023 55.8343 524.67 55.1297C525.317 54.4251 526.194 54.0288 527.109 54.0277H577.153C578.068 54.0288 578.946 54.4251 579.593 55.1297C580.24 55.8343 580.604 56.7897 580.604 57.7862V90.6726C580.604 91.6691 580.24 92.6245 579.593 93.3292C578.946 94.0338 578.068 94.4301 577.153 94.4311ZM527.109 57.7862V90.6726H577.156L577.153 57.7862L527.109 57.7862Z" fill="white"/>
<path d="M567.662 57.7862H536.601V42.7524C536.601 31.8633 543.132 23.9601 552.131 23.9601C561.13 23.9601 567.662 31.8633 567.662 42.7524L567.662 57.7862ZM540.052 54.0277H564.211V42.7524C564.211 33.9008 559.244 27.7186 552.131 27.7186C545.019 27.7186 540.052 33.9008 540.052 42.7524L540.052 54.0277Z" fill="white"/>
<path d="M552.131 77.0483C554.037 77.0483 555.582 75.3656 555.582 73.2898C555.582 71.2141 554.037 69.5314 552.131 69.5314C550.225 69.5314 548.68 71.2141 548.68 73.2898C548.68 75.3656 550.225 77.0483 552.131 77.0483Z" fill="white"/>
<path d="M509.969 210.09H261.245C260.023 210.088 258.853 209.559 257.989 208.619C257.126 207.679 256.64 206.404 256.639 205.074V137.885C256.64 136.555 257.126 135.28 257.989 134.34C258.853 133.4 260.023 132.871 261.245 132.869H509.969C511.19 132.871 512.36 133.4 513.224 134.34C514.087 135.28 514.573 136.555 514.575 137.885V205.074C514.573 206.404 514.087 207.679 513.224 208.619C512.36 209.559 511.19 210.088 509.969 210.09ZM261.245 134.875C260.512 134.876 259.809 135.194 259.291 135.758C258.773 136.322 258.482 137.087 258.481 137.885V205.074C258.482 205.872 258.773 206.637 259.291 207.201C259.809 207.765 260.512 208.082 261.245 208.083H509.969C510.701 208.082 511.404 207.765 511.922 207.201C512.44 206.637 512.731 205.872 512.732 205.074V137.885C512.731 137.087 512.44 136.322 511.922 135.758C511.404 135.194 510.701 134.876 509.969 134.875L261.245 134.875Z" fill="#E6E6E6"/>
<path d="M299.891 189.334C310.253 189.334 318.654 180.186 318.654 168.901C318.654 157.617 310.253 148.469 299.891 148.469C289.529 148.469 281.129 157.617 281.129 168.901C281.129 180.186 289.529 189.334 299.891 189.334Z" fill="#E6E6E6"/>
<path d="M343.224 155.28C342.813 155.279 342.406 155.367 342.026 155.537C341.646 155.708 341.3 155.959 341.009 156.275C340.719 156.592 340.488 156.967 340.33 157.381C340.173 157.794 340.092 158.238 340.092 158.685C340.092 159.133 340.173 159.576 340.33 159.99C340.488 160.403 340.719 160.779 341.009 161.095C341.3 161.411 341.646 161.662 342.026 161.833C342.406 162.004 342.813 162.091 343.224 162.091H490.642C491.472 162.091 492.267 161.732 492.854 161.093C493.44 160.454 493.769 159.588 493.769 158.685C493.769 157.782 493.44 156.916 492.854 156.277C492.267 155.639 491.472 155.28 490.642 155.28H343.224Z" fill="#E6E6E6"/>
<path d="M343.224 175.712C342.394 175.712 341.599 176.071 341.013 176.709C340.426 177.348 340.097 178.214 340.097 179.117C340.097 180.021 340.426 180.887 341.013 181.525C341.599 182.164 342.394 182.523 343.224 182.523H406.658C407.488 182.523 408.283 182.164 408.869 181.525C409.456 180.887 409.785 180.021 409.785 179.117C409.785 178.214 409.456 177.348 408.869 176.709C408.283 176.071 407.488 175.712 406.658 175.712H343.224Z" fill="#E6E6E6"/>
<path d="M205.7 177.09L159.722 203.709L159.14 181.526C174.147 178.798 188.424 174.048 201.626 166.315L206.435 153.377C206.959 151.967 207.811 150.73 208.906 149.787C210.002 148.844 211.304 148.227 212.685 147.998C214.065 147.768 215.477 147.933 216.781 148.477C218.085 149.021 219.237 149.925 220.124 151.101C221.421 152.82 222.069 155.012 221.937 157.233C221.805 159.453 220.904 161.536 219.414 163.06L205.7 177.09Z" fill="#FFB8B8"/>
<path d="M93.3563 330.783C93.0208 329.443 92.9496 328.041 93.1473 326.67C93.345 325.298 93.8071 323.987 94.5032 322.824L104.603 305.944C106.992 301.951 110.658 299.067 114.889 297.852C119.12 296.636 123.615 297.175 127.502 299.365C123.257 307.233 123.849 314.136 128.968 320.135C121.021 324.359 113.676 329.812 107.161 336.324C105.972 337.207 104.606 337.767 103.177 337.959C101.749 338.151 100.299 337.968 98.9481 337.426C97.5974 336.884 96.3853 335.998 95.4126 334.843C94.44 333.687 93.7349 332.295 93.3563 330.783Z" fill="#2F2E41"/>
<path d="M207.794 308.712C206.265 311.486 204.108 313.785 201.528 315.39C198.949 316.994 196.034 317.85 193.064 317.875L125.965 318.428L123.055 300.048L152.737 290.541L127.711 269.625L155.065 234.766L204.749 285.195C207.653 288.142 209.54 292.086 210.094 296.366C210.648 300.647 209.836 305.005 207.794 308.712Z" fill="#2F2E41"/>
<path d="M115.489 434.414H99.7744C85.6653 329.095 71.3037 223.481 113.743 184.061L163.795 192.935L157.393 239.202L129.457 274.062L115.489 434.414Z" fill="#2F2E41"/>
<path d="M129.303 458.272C128.072 458.638 126.785 458.715 125.526 458.5C124.266 458.285 123.062 457.782 121.994 457.024L104.932 454.526C101.265 451.925 98.6168 447.933 97.5003 443.326C96.3837 438.718 96.8787 433.823 98.8891 429.591C106.115 434.213 112.453 433.568 117.961 427.993C121.853 436.551 128.266 436.029 134.39 443.239C135.201 444.534 135.716 446.021 135.892 447.577C136.068 449.133 135.9 450.712 135.403 452.183C134.905 453.654 134.092 454.974 133.031 456.033C131.969 457.092 130.691 457.86 129.303 458.272Z" fill="#2F2E41"/>
<path d="M152.737 113.709L123.637 106.103C128.47 95.33 128.868 83.3423 126.547 70.6104L146.335 69.9766C146.955 85.8091 148.831 100.601 152.737 113.709Z" fill="#FFB8B8"/>
<path d="M160.735 212.018C139.551 227.738 124.583 212.556 113.161 189.132C114.748 174.798 112.178 157.646 107.419 139.008C105.302 130.787 106.092 122.001 109.633 114.384C113.175 106.766 119.21 100.872 126.547 97.864L151.573 109.273C172.824 128.135 177.006 148.568 169.034 170.118L160.735 212.018Z" fill="#C14607"/>
<path d="M99.7744 129.554L76.4941 142.864L117.817 169.484L123.566 184.929C123.95 185.96 124.137 187.065 124.116 188.177C124.095 189.289 123.866 190.385 123.443 191.398C123.02 192.41 122.412 193.318 121.656 194.067C120.901 194.815 120.013 195.388 119.047 195.751C117.95 196.163 116.779 196.293 115.628 196.13C114.476 195.968 113.375 195.517 112.41 194.814C111.445 194.11 110.643 193.173 110.066 192.075C109.49 190.978 109.154 189.75 109.086 188.488L108.505 177.723L55.9841 158.849C54.2146 158.213 52.6011 157.147 51.2659 155.732C49.9308 154.316 48.9089 152.588 48.2777 150.679C47.3577 147.896 47.3109 144.859 48.1446 142.044C48.9782 139.229 50.6454 136.794 52.8852 135.121L95.1184 103.568L99.7744 129.554Z" fill="#FFB8B8"/>
<path d="M123.055 132.089C113.346 127.456 104.517 132.489 93.373 136.526L91.627 102.934C102.693 96.5117 113.243 94.78 123.055 99.7654L123.055 132.089Z" fill="#C14607"/>
<path d="M134.669 86.6157C144.93 86.6157 153.249 77.557 153.249 66.3827C153.249 55.2083 144.93 46.1497 134.669 46.1497C124.408 46.1497 116.09 55.2083 116.09 66.3827C116.09 77.557 124.408 86.6157 134.669 86.6157Z" fill="#FFB8B8"/>
<path d="M156.896 63.8298C138.501 65.7918 124.484 62.5155 115.525 53.1871V45.6746H155.335L156.896 63.8298Z" fill="#2F2E41"/>
</g>
<defs>
<clipPath id="clip0_107_284">
<rect width="619" height="469" fill="white"/>
</clipPath>
</defs>
</svg>
